<svg width="92" height="64" viewBox="0 0 92 64" fill="none" xmlns="http://www.w3.org/2000/svg">
<path fill-rule="evenodd" clip-rule="evenodd" d="M86.6169 39.6642C85.9781 40.2863 85.1764 41.0215 84.8352 41.2983C84.4941 41.575 84.0416 41.9485 83.8297 42.1285C83.6179 42.3084 83.4015 42.4555 83.3489 42.4555C83.0089 42.4555 82.6606 43.3286 82.4659 44.6693C82.4297 44.9184 82.3623 45.3486 82.3161 45.6253C82.2699 45.902 82.1836 46.4228 82.1243 46.7825C82.065 47.1423 81.9711 47.6631 81.9155 47.9398C81.8224 48.4034 81.7321 48.9281 81.5174 50.2542C81.4726 50.531 81.3811 51.0291 81.3142 51.3612C81.2472 51.6932 81.1557 52.1913 81.1109 52.4681C80.8987 53.7794 80.8068 54.3145 80.7226 54.7322C80.6723 54.9813 80.5778 55.4568 80.5124 55.7888C80.4471 56.1209 80.3526 56.5964 80.3023 56.8454C80.2521 57.0945 80.1665 57.57 80.1121 57.902C80.0206 58.4611 79.9189 58.9967 79.7112 60.0152C79.666 60.2366 79.5756 60.6895 79.5102 61.0215C79.4449 61.3536 79.3504 61.8291 79.3001 62.0781C79.2499 62.3272 79.1802 62.7121 79.1456 62.9335C79.1108 63.1549 79.0369 63.3937 78.9813 63.4642C78.7955 63.7002 79.016 63.7383 80.7585 63.7718L82.4915 63.805L82.55 63.2184C82.582 62.8956 82.6561 62.4052 82.7145 62.1284C82.7728 61.8517 82.8469 61.4215 82.879 61.1725C82.9648 60.5068 83.1319 60.1662 83.373 60.1662C83.4864 60.1662 83.6219 60.1258 83.6743 60.0765C83.7266 60.0272 84.0401 59.9601 84.3708 59.9274C84.7015 59.8947 85.2427 59.8198 85.5734 59.7611C85.9041 59.7024 86.5188 59.6291 86.9393 59.5982L87.7039 59.5422L87.7688 59.9297C87.8045 60.1427 87.8773 60.5662 87.9307 60.8706C88.0377 61.4819 88.2155 62.6923 88.2981 63.3729L88.3515 63.8124L89.5681 63.7499C90.2373 63.7155 91.0039 63.6599 91.2718 63.6264L91.7588 63.5655L91.6978 62.9477C91.6285 62.2442 91.4812 61.0483 91.3367 60.0152C91.2824 59.6278 91.1919 58.9486 91.1355 58.5058C91.0116 57.5335 90.9107 56.8127 90.3402 52.8203C90.2809 52.4052 90.1878 51.7939 90.1333 51.4618C90.0789 51.1297 89.9887 50.541 89.9329 50.1536C89.8771 49.7662 89.7899 49.2002 89.7392 48.8958C89.5907 48.0056 89.4548 47.185 89.331 46.4303C89.2675 46.0429 89.1775 45.4995 89.1312 45.2228C89.0849 44.9461 88.9978 44.4253 88.9377 44.0656C88.8777 43.7058 88.7824 43.1624 88.726 42.858C88.6696 42.5536 88.5797 42.0555 88.5261 41.7511C88.4726 41.4467 88.3824 40.9486 88.3257 40.6442C88.269 40.3398 88.1815 39.8417 88.1314 39.5373C87.9255 38.2875 88.0405 38.2778 86.6169 39.6642ZM2.21721 40.0063C2.06569 40.0864 1.94162 40.2026 1.94162 40.2644C1.94162 40.3262 1.86816 40.4583 1.77836 40.558C1.68857 40.6576 1.57552 40.9328 1.52721 41.1696C1.47891 41.4065 1.39423 41.8266 1.33901 42.1033C0.846034 44.5768 0.968801 53.0821 1.54125 56.1159C1.90864 58.0627 1.91115 58.0712 2.41565 59.0517C3.2246 60.6238 4.02725 61.1681 5.85011 61.3804C6.26351 61.4285 6.7657 61.4963 6.96604 61.5311L7.33033 61.5943L7.37152 62.5402C7.42514 63.771 7.35098 63.7213 9.20791 63.7714L10.7608 63.8133V62.899C10.7608 61.7914 10.8364 61.7134 11.8021 61.8245C15.1701 62.2119 16.7042 60.9609 17.0705 57.5286C17.3166 55.2212 17.0682 51.0281 16.6575 50.5612C16.6113 50.5086 16.5734 50.3904 16.5734 50.2985C16.5734 49.1464 14.6925 47.2912 12.2981 46.0816C10.7293 45.2891 10.7649 45.3281 10.7508 44.3844C10.738 43.5263 10.6552 43.2385 10.3814 43.1014C10.2601 43.0408 10.0781 42.9159 9.97688 42.8239C9.87576 42.732 9.74708 42.6568 9.69106 42.6568C9.63504 42.6568 9.50756 42.5662 9.40785 42.4555C9.30813 42.3448 9.17284 42.2543 9.10719 42.2543C9.04155 42.2543 8.90626 42.1637 8.80654 42.053C8.70682 41.9423 8.57003 41.8517 8.50258 41.8517C8.43523 41.8517 8.32469 41.7847 8.25705 41.7029C7.69653 41.0247 7.41091 41.1884 7.36811 42.2123C7.32863 43.1602 7.33955 43.1442 6.94519 42.8329C6.78745 42.7083 6.47196 42.4706 6.24407 42.3046C6.01627 42.1385 5.59325 41.7876 5.30413 41.5247C5.015 41.2617 4.73198 41.0467 4.67516 41.0467C4.61834 41.0467 4.51471 40.9776 4.44486 40.893C4.2325 40.6362 3.44619 40.1405 3.00723 39.987C2.52769 39.8192 2.57299 39.8181 2.21721 40.0063ZM77.3556 45.8769C77.1902 45.9795 76.9805 46.0668 76.8897 46.0708C76.7989 46.0748 76.4673 46.214 76.1529 46.38C75.8386 46.5461 75.5273 46.6819 75.4612 46.6819C74.7433 46.6819 74.6998 46.9039 74.6998 50.5702V53.3234H74.4552C74.3206 53.3234 74.1858 53.3637 74.1554 53.413C74.1251 53.4622 73.9534 53.5282 73.7737 53.5597C73.3438 53.6351 72.4681 53.8069 71.8436 53.9387C71.568 53.9968 71.0607 54.0672 70.7161 54.095L70.0898 54.1457L70.0788 51.898C70.0699 50.0556 69.9647 48.051 69.9041 48.5687C69.8959 48.6379 69.791 48.6945 69.671 48.6945C69.5509 48.6945 69.3141 48.7368 69.1448 48.7883C68.9755 48.8399 68.6341 48.9349 68.3861 48.9994C68.138 49.0639 67.8568 49.1575 67.7611 49.2074C67.6654 49.2574 67.45 49.2983 67.2826 49.2983C66.7401 49.2983 66.7451 49.2341 66.7038 56.8203L66.6658 63.7888H68.3778H70.0898V60.9401C70.0898 57.7169 70.0712 57.7965 70.8414 57.7123C71.117 57.6822 71.6582 57.6088 72.044 57.5491C72.4299 57.4896 73.1853 57.4158 73.7227 57.3852L74.6998 57.3298V60.5592V63.7888H76.4035H78.1072V54.7322V45.6756L77.8817 45.683C77.7577 45.687 77.5209 45.7742 77.3556 45.8769ZM85.5578 46.1033C85.6133 46.5377 85.7411 47.2917 85.9285 48.292C86.1156 49.29 86.2145 49.8648 86.5261 51.7637C86.5896 52.1511 86.6846 52.7171 86.7371 53.0215C86.9845 54.4564 86.9735 54.9335 86.6931 54.9335C86.5523 54.9335 86.4092 54.9788 86.3752 55.0341C86.3411 55.0895 86.2058 55.1347 86.0745 55.1347C85.9432 55.1347 85.8079 55.18 85.7739 55.2354C85.7398 55.2907 85.6045 55.336 85.4732 55.336C85.3419 55.336 85.2066 55.3813 85.1726 55.4366C85.1385 55.492 85.0032 55.5373 84.8719 55.5373C84.7406 55.5373 84.6053 55.5825 84.5713 55.6379C84.5372 55.6932 84.3716 55.7385 84.2033 55.7385H83.8972L83.9554 55.0593C83.9875 54.6857 84.0602 54.1083 84.1172 53.7763C84.2159 53.2001 84.2728 52.819 84.5154 51.1096C84.5744 50.6945 84.6672 50.0832 84.7216 49.7511C84.776 49.419 84.8691 48.8077 84.9284 48.3926C85.3492 45.4478 85.4344 45.1382 85.5578 46.1033ZM6.2591 47.7143C6.50263 47.8393 6.84858 48.0516 7.02767 48.186L7.35338 48.4304V52.3971C7.35338 56.136 7.34336 56.3596 7.178 56.2898C7.08149 56.2491 6.88987 56.1956 6.75207 56.1708C5.68726 55.9797 4.90145 55.1437 4.69069 53.9775C4.56712 53.2937 4.59178 48.6892 4.72146 48.2417C4.94114 47.4834 5.46147 47.3049 6.2591 47.7143ZM20.4959 48.4074C18.8495 48.8832 18.3789 50.4237 18.3793 55.336C18.3795 58.206 18.5985 60.5679 18.8968 60.9159C18.9418 60.9685 18.9787 61.0939 18.9787 61.1946C18.9787 61.685 20.1135 62.9165 20.9329 63.3153C21.8227 63.7484 23.6596 64.0602 24.7058 63.9558C29.4492 63.4823 30.1973 62.5548 30.1977 57.1473C30.198 53.3006 30.0029 52.4774 28.7499 51.0385C28.1984 50.4052 26.8189 49.5132 26.3756 49.5034C26.2824 49.5012 26.1835 49.4628 26.1559 49.4178C26.1092 49.3419 25.554 49.1525 24.19 48.7467C22.8274 48.3414 21.2317 48.1949 20.4959 48.4074ZM65.1358 49.7903C65.1055 49.8396 64.9338 49.9056 64.7541 49.9371C64.4429 49.9916 64.0261 50.0731 62.849 50.3097C62.5596 50.3679 62.1504 50.4408 61.9397 50.4719C61.7288 50.503 61.5425 50.5799 61.5255 50.6429C61.3674 51.2299 61.2225 51.6804 61.165 51.7637C61.1268 51.819 60.9959 52.1586 60.8741 52.5184C60.7524 52.8781 60.5921 53.3083 60.518 53.4744C60.4438 53.6404 60.3091 54.0027 60.2187 54.2794C60.1282 54.5561 59.9672 54.9745 59.8606 55.2091C59.7542 55.4438 59.6671 55.6724 59.6671 55.7174C59.6671 55.9266 59.4008 56.3407 59.2662 56.3407C59.1198 56.3407 58.8654 55.9202 58.8654 55.6783C58.8654 55.612 58.7301 55.2995 58.5647 54.9838C58.3994 54.6681 58.2641 54.3529 58.2641 54.2831C58.2641 54.2133 58.0837 53.8041 57.8632 53.3737C57.6427 52.9433 57.4623 52.5338 57.4623 52.4636C57.4623 52.3045 57.0465 51.4894 56.9111 51.3832C56.856 51.34 56.5854 51.3278 56.3098 51.3561C56.0342 51.3844 55.3577 51.4484 54.8065 51.4983C53.9536 51.5756 53.2532 51.7292 53.2532 51.8388C53.2532 51.8552 54.2002 53.7686 55.3577 56.0907C56.5153 58.4128 57.4623 60.3951 57.4623 60.4956C57.4623 60.9885 57.0414 61.1725 55.9134 61.1725H54.8567V62.4806V63.7888H55.1262C55.2745 63.7888 55.6533 63.8423 55.968 63.9075C57.9714 64.323 59.4125 63.2753 60.8493 60.3587C61.3015 59.4408 61.6715 58.6416 61.6715 58.5828C61.6715 58.524 61.7974 58.2336 61.9515 57.9375C62.1055 57.6412 62.2915 57.2404 62.3648 57.0467C62.438 56.853 62.6728 56.3253 62.8865 55.8742C63.1002 55.4229 63.275 55.0142 63.275 54.9659C63.275 54.9176 63.4088 54.6075 63.5725 54.2769C63.7361 53.9462 63.8713 53.6292 63.8732 53.5725C63.8749 53.5157 64.0102 53.1987 64.1738 52.8681C64.3374 52.5374 64.4727 52.2187 64.4745 52.1599C64.4762 52.1012 64.5678 51.8656 64.678 51.6365C64.7882 51.4073 64.8784 51.1771 64.8784 51.1247C64.8784 51.0723 65.0136 50.7713 65.1789 50.4558C65.4601 49.919 65.4892 49.7008 65.2793 49.7008C65.2307 49.7008 65.1662 49.741 65.1358 49.7903ZM11.5328 50.2165C13.41 50.9742 13.6927 51.5116 13.6962 54.3297C13.6999 57.1909 13.4012 57.5519 11.3301 57.1905C10.7739 57.0934 10.7608 57.0051 10.7608 53.3672V50.1033H11.0066C11.1418 50.1033 11.3786 50.1542 11.5328 50.2165ZM31.8065 57.2355V63.7888H33.5102H35.2139V62.1689V60.549L36.5919 60.6137C38.9565 60.7248 38.9296 60.7262 40.5756 60.4094C41.6411 60.2044 42.2122 59.3048 42.5315 57.3288C42.6533 56.5742 42.6444 56.3256 42.4438 54.9016C42.2674 53.6492 41.1794 52.1171 40.4658 52.1161C40.4053 52.116 40.2164 52.046 40.0461 51.9607C39.7092 51.792 39.0199 51.6519 37.7695 51.4979C37.3285 51.4436 36.6972 51.3599 36.3665 51.3118C35.7341 51.2198 34.6035 51.0577 33.5102 50.9022C33.152 50.8512 32.622 50.7808 32.3327 50.7458L31.8065 50.6821V57.2355ZM50.8479 51.814C50.7101 51.8583 48.8949 51.899 46.8142 51.9046L43.0309 51.9146V53.3234V54.7322H44.6344H46.2379V59.2605V63.7888H47.9416H49.6453V59.2715V54.7543L50.0211 54.682C50.2279 54.6423 50.9945 54.5895 51.7248 54.5649L53.0527 54.5201V53.1167V51.7134L52.0756 51.7234C51.5382 51.729 50.9857 51.7697 50.8479 51.814ZM24.3332 52.2097C24.5025 52.2613 24.8439 52.3609 25.0919 52.431C25.7456 52.6159 26.2615 52.9687 26.4299 53.3462C27.0993 54.8461 26.7961 60.2272 26.0355 60.3475C25.93 60.3641 25.747 60.4258 25.629 60.4844C25.4171 60.5896 24.2653 60.5497 23.4432 60.4086C22.8909 60.3138 22.4612 60.0507 22.2947 59.7051C22.2168 59.5436 22.1154 59.3329 22.0692 59.2368C21.9121 58.9098 21.9662 52.8801 22.1289 52.5651C22.3637 52.1107 23.4395 51.9373 24.3332 52.2097ZM37.519 54.3074C38.8197 54.4525 39.0222 54.706 39.0222 56.1893C39.0222 57.7592 39.0335 57.7511 36.8721 57.7511H35.2139V55.9272V54.1032L36.0407 54.169C36.4955 54.2051 37.1607 54.2674 37.519 54.3074Z" fill="#2D2D2D"/>
<path d="M52.1875 22.8329C69.9365 26.3833 84.9133 26.2114 85.6637 22.443C86.4156 18.6669 72.5983 12.7096 54.8019 9.13681C42.1169 6.59023 30.8343 5.94255 25.1272 7.14801C30.3724 6.75699 38.1404 7.40366 46.644 9.13084C61.596 12.1678 73.1598 17.3953 72.4725 20.8069C71.9129 23.5849 63.4023 24.3021 52.1875 22.8329Z" fill="#0080FF"/>
<path d="M77.5562 33.8539L76.6565 32.1276C71.1386 32.8969 61.6263 32.0298 51.0797 29.5419L50.1089 11.8742H42.8932L42.0588 27.0612C30.3365 23.3437 22.2916 18.6751 23.0197 15.605C23.6579 12.9138 30.8651 12.1768 40.8065 13.3738L40.867 12.2728C23.5779 9.02845 9.61721 9.8518 8.55286 14.4914C7.38365 19.5882 22.2154 27.3799 41.7876 31.9955L41.2898 41.0566H51.7124L51.3193 33.9017C63.0175 35.8112 72.8306 35.7673 77.5562 33.8539Z" fill="#0080FF"/>
<path fill-rule="evenodd" clip-rule="evenodd" d="M92 23.9497C92 37.1767 71.4051 47.8994 46 47.8994C20.5949 47.8994 0 37.1767 0 23.9497C0 10.7226 20.5949 0 46 0C71.4051 0 92 10.7226 92 23.9497ZM88.3922 22.6415C88.3922 34.5903 69.4125 44.2767 46 44.2767C22.5875 44.2767 3.60784 34.5903 3.60784 22.6415C3.60784 10.6927 22.5875 1.00629 46 1.00629C69.4125 1.00629 88.3922 10.6927 88.3922 22.6415Z" fill="#0080FF"/>
</svg>
