<svg width="870" height="140" viewBox="0 0 870 140" fill="none" xmlns="http://www.w3.org/2000/svg"><path d="M49.517 120.555c12.247 0 22.175-9.924 22.175-22.166s-9.928-22.167-22.175-22.167c-10.507 0-19.307 7.305-21.595 17.111m21.595 27.222V140m0-19.445v-5.444m0 5.444a22.079 22.079 0 01-13.712-4.746m13.712-27.142v9.722m0 0l9.726-9.722m-9.726 9.722l-9.726-9.722m9.726 9.722v16.722m0 0L63.134 101.5m-13.617 13.611l-13.788-14m-7.807-7.778l-.015.062m.015-.062l-.015.062m-7.178 31.903c-9.24 0-16.729-7.504-16.729-16.76 0-9.257 7.49-16.76 16.729-16.76 2.569 0 5.003.58 7.178 1.617m-7.178 31.903V140m0-14.702v-4.116m0 4.116c6.638 0 12.373-3.874 15.076-9.489M20.73 101.187v7.351m0 0l7.337-7.351m-7.337 7.351l-7.337-7.351m7.337 7.351v12.644m0 0L31 110.89m-10.272 10.292L10.457 110.89m17.45-17.495a16.813 16.813 0 017.822 7.716m.076 14.698a16.718 16.718 0 001.652-7.271c0-2.667-.621-5.189-1.728-7.427m627.361 19.445c-12.247 0-22.176-9.925-22.176-22.167s9.929-22.167 22.176-22.167c10.507 0 19.307 7.305 21.595 17.111m-21.595 27.223V140m0-19.444v-5.445m0 5.445a22.08 22.08 0 0013.712-4.747M663.09 88.667v9.722m0 0l-9.726-9.722m9.726 9.722l9.725-9.722m-9.725 9.722v16.722m0 0L649.473 101.5m13.617 13.611l13.788-14m7.807-7.778l.015.062m-.015-.062l.015.062m7.178 31.903c9.239 0 16.729-7.504 16.729-16.76 0-9.256-7.49-16.76-16.729-16.76-2.569 0-5.003.58-7.178 1.617m7.178 31.903V140m0-14.702v-4.116m0 4.116c-6.638 0-12.373-3.874-15.076-9.489m15.076-14.622v7.351m0 0l-7.337-7.351m7.337 7.351l7.337-7.351m-7.337 7.351v12.644m0 0l-10.272-10.292m10.272 10.292l10.272-10.292M684.7 93.395a16.81 16.81 0 00-7.822 7.716m-.076 14.698a16.714 16.714 0 01-1.652-7.271c0-2.667.621-5.188 1.728-7.427m-168.847 24.898c8.809 0 15.95-7.14 15.95-15.949 0-8.808-7.141-15.949-15.95-15.949-8.81 0-15.951 7.141-15.951 15.949 0 8.809 7.141 15.949 15.951 15.949zm0 0V140m0-13.991v-3.917m0-19.027v6.995m0 0l6.995-6.995m-6.995 6.995l-6.996-6.995m6.996 6.995v12.032m0 0l9.794-9.793m-9.794 9.793l-9.795-9.793M197.933 132.05a10.119 10.119 0 0016.05-3.832c.603-1.498.838-3.119.685-4.727a10.096 10.096 0 00-1.561-4.514c-.874-1.359-1.525-2.334-3.461-3.295-1.935-.96-4.309-1.288-4.309-1.288s.877-2.605.807-3.977a8.167 8.167 0 00-8.052-7.75 8.17 8.17 0 00-8.252 7.535 8.12 8.12 0 00.78 4.159 10.115 10.115 0 00-8.649 13.816 10.116 10.116 0 0011.686 6.117c1.02-.236 3.55-1.683 4.276-2.244zm0 0V140m0-7.95c.09-.544.139-1.285.102-2.161m-4.378-10.5c3.285 3.551 4.263 7.711 4.378 10.5m0 0c1.021-1.802 3.607-5.605 5.786-6.398M81 140V99.944l22.564-11.277 22.564 11.277V140m0 0V99.944l22.564-11.277 22.564 11.277V140" stroke="#91CB82" stroke-width="4"/><path fill="#91CB82" d="M90.337 108.111h5.447v9.333h-5.447zm0 14h5.447v9.333h-5.447zm21.786-14h5.447v9.333h-5.447zm0 14h5.447v9.333h-5.447zm-10.893-14h5.447v9.333h-5.447zm0 14h5.447v9.333h-5.447zm34.235-14h5.447v9.333h-5.447zm0 14h5.447v9.333h-5.447zm21.786-14h5.447v9.333h-5.447zm0 14h5.447v9.333h-5.447zm-10.893-14h5.447v9.333h-5.447zm0 14h5.447v9.333h-5.447zm654.84-4.667h5.447v17.111h-5.447zM609.893 31h5.447v9.333h-5.447zm0 13.778h5.447v9.333h-5.447zM599 31h5.447v9.333H599zm-10 0h5.447v9.333H589zm10 14h5.447v9.333H599zm10.893 14.222h5.447v9.333h-5.447zm0 14h5.447v9.333h-5.447zm0 14.778h5.447v9.333h-5.447zM599 59.222h5.447v9.333H599zm0 14h5.447v9.333H599zM584.671 105h5.447v9.333h-5.447zm-10.893 0h5.447v9.333h-5.447zm-28.789-46h5.447v9.333h-5.447zm21.786 0h5.447v9.333h-5.447zm-5.446 13.222h5.447v9.333h-5.447zM555.882 59h5.447v9.333h-5.447zm-5.446 13.222h5.447v9.333h-5.447z"/><path d="M533.318 140V47.333h35.894M562.107 140V94.111h21.008M600.233 140V94.111h-17.118m0 0V47.333h-13.903M629.8 140V20h-15.3m-45.288 27.333V20H585.5m0 0V4h29v16m-29 0h29" stroke="#91CB82" stroke-width="4"/><path fill="#91CB82" d="M841.436 117.444h5.447v17.111h-5.447zm-29.567 0h5.447v17.111h-5.447zm-35.014 0h5.447v17.111h-5.447zm-42.015 0h5.447v17.111h-5.447zm11.671 0h5.447v17.111h-5.447zm83.254 0h5.447v17.111h-5.447zm-64.58 0h5.447v17.111h-5.447z"/><path d="M854.663 140v-32.667H727.059V140M864 93.333H717.722l6.225 14h133.829l6.224-14z" stroke="#91CB82" stroke-width="4"/><path d="M740.286 94.111s19.452-28.778 50.575-28.778 50.575 28.778 50.575 28.778m-68.471-45.889h35.792l-4.669 11.667h-26.454l-4.669-11.667zm17.896 11.667v5.444m-8.559-5.444v6.222m17.896-6.222v6.222" stroke="#91CB82" stroke-width="4"/><path fill="#91CB82" d="M468.852 118h5.447v17.111h-5.447zm-238.446 0h5.447v17.111h-5.447zm9.446 0h5.447v17.111h-5.447zm219.554 0h5.447v17.111h-5.447z"/><path d="M481.406 140v-30h-20m-238 30v-30h20m218 0V93h-4s-40-34-105.715-34c-65.714 0-104.285 34-104.285 34h-4v17m218 0h-66m-152 0h65.5" stroke="#91CB82" stroke-width="4"/><path d="M398.916 110h-93.02m93.02 0l-.001-11.359m.001 11.359v30m-93.02-30V98.541m0 11.459v30m0-41.459c-3.66 2.014-5.49 3.508-5.49 3.508h-4m9.49-3.508C313.459 94.38 328.836 88 352.032 88c23.382 0 39.165 6.483 46.883 10.641m0 0c3.644 1.963 5.491 3.408 5.491 3.408h4m-63-36.049h14v13.304l-7 4.696-7-4.696V66zm22 74v-8.182m-30 8.182v-8.182m0-10.909V110h30v10.909m-30 0h30m-30 0v10.909m30-10.909v10.909m-30 0h30" stroke="#91CB82" stroke-width="4"/></svg>