<svg width="1920" height="1080" viewBox="0 0 1920 1080" fill="none" xmlns="http://www.w3.org/2000/svg"><g clip-path="url(#clip0_no_image_placeholder)"><path fill="url(#paint0_linear_no_image_placeholder)" d="M0 0h1920v1080H0z"/><path d="M2026.11 614.115c-149.18 149.18-391.04 149.18-540.22 0-149.19-149.181-149.19-391.05 0-540.23 149.18-149.18 391.04-149.18 540.22 0 149.19 149.18 149.19 391.049 0 540.23z" fill="url(#paint1_linear_no_image_placeholder)"/><path d="M229.735 769.735c-84.353 84.353-221.117 84.353-305.47 0-84.353-84.353-84.353-221.117 0-305.47 84.353-84.353 221.117-84.353 305.47 0 84.353 84.353 84.353 221.117 0 305.47z" fill="url(#paint2_linear_no_image_placeholder)"/><path d="M479.881 1206.88c-130.826 130.83-342.936 130.83-473.762 0-130.825-130.82-130.825-342.935 0-473.761 130.826-130.825 342.936-130.825 473.762 0 130.825 130.826 130.825 342.941 0 473.761z" fill="url(#paint3_linear_no_image_placeholder)"/><path d="M1210.94 761.945c-57.4 57.407-150.48 57.407-207.88 0-57.412-57.407-57.412-150.483 0-207.89 57.4-57.407 150.48-57.407 207.88 0 57.41 57.407 57.41 150.483 0 207.89z" fill="url(#paint4_linear_no_image_placeholder)" fill-opacity=".8"/><path d="M901.371 616.371c-80.838 80.839-211.904 80.839-292.742 0-80.839-80.838-80.839-211.904 0-292.742 80.838-80.839 211.904-80.839 292.742 0 80.839 80.838 80.839 211.904 0 292.742z" fill="url(#paint5_linear_no_image_placeholder)" fill-opacity=".8"/><path d="M1656.34 240.342c-90.21 90.211-236.47 90.211-326.68 0-90.21-90.211-90.21-236.473 0-326.684 90.21-90.211 236.47-90.211 326.68 0 90.21 90.211 90.21 236.473 0 326.684z" fill="url(#paint6_linear_no_image_placeholder)"/></g><defs><linearGradient id="paint0_linear_no_image_placeholder" x1="0" y1="1080" x2="1920" y2="0" gradientUnits="userSpaceOnUse"><stop stop-color="#233053"/><stop offset="1" stop-color="#531633"/></linearGradient><linearGradient id="paint1_linear_no_image_placeholder" x1="2026.11" y1="73.885" x2="1485.89" y2="614.115" gradientUnits="userSpaceOnUse"><stop stop-color="#F66E0A"/><stop offset="1" stop-color="#F60A98"/></linearGradient><linearGradient id="paint2_linear_no_image_placeholder" x1="229.735" y1="464.265" x2="-75.735" y2="769.735" gradientUnits="userSpaceOnUse"><stop stop-color="#0AF622"/><stop offset="1" stop-color="#0AA1F6"/></linearGradient><linearGradient id="paint3_linear_no_image_placeholder" x1="479.881" y1="733.119" x2="6.119" y2="1206.88" gradientUnits="userSpaceOnUse"><stop stop-color="#0AA1F6"/><stop offset="1" stop-color="#B90AF6"/></linearGradient><linearGradient id="paint4_linear_no_image_placeholder" x1="1210.94" y1="554.055" x2="1003.06" y2="761.945" gradientUnits="userSpaceOnUse"><stop stop-color="#0AA1F6"/><stop offset="1" stop-color="#B90AF6"/></linearGradient><linearGradient id="paint5_linear_no_image_placeholder" x1="901.371" y1="323.629" x2="608.629" y2="616.371" gradientUnits="userSpaceOnUse"><stop stop-color="#FFB47D"/><stop offset="1" stop-color="#FA00FF"/></linearGradient><linearGradient id="paint6_linear_no_image_placeholder" x1="1656.34" y1="-86.342" x2="1329.66" y2="240.342" gradientUnits="userSpaceOnUse"><stop stop-color="#F6C20A"/><stop offset="1" stop-color="#F6980A"/></linearGradient><clipPath id="clip0_no_image_placeholder"><path fill="#fff" d="M0 0h1920v1080H0z"/></clipPath></defs></svg>