<?xml version="1.0" standalone="no"?>
<!DOCTYPE svg PUBLIC "-//W3C//DTD SVG 20010904//EN"
 "http://www.w3.org/TR/2001/REC-SVG-20010904/DTD/svg10.dtd">
<svg version="1.0" xmlns="http://www.w3.org/2000/svg"
 width="700.000000pt" height="700.000000pt" viewBox="0 0 700.000000 700.000000"
 preserveAspectRatio="xMidYMid meet">
<metadata>
Created by potrace 1.11, written by Peter Selinger 2001-2013
</metadata>
<g transform="translate(0.000000,700.000000) scale(0.100000,-0.100000)"
fill="#000000" stroke="none">
<path d="M3168 5325 c-1 -1 -57 -6 -123 -10 -66 -4 -127 -8 -136 -10 -8 -2
-49 -6 -90 -10 -41 -3 -85 -8 -99 -10 -14 -2 -47 -6 -75 -9 -27 -3 -61 -8 -75
-11 -14 -2 -43 -7 -65 -10 -54 -7 -145 -23 -230 -40 -38 -8 -81 -16 -95 -19
-14 -2 -90 -20 -170 -40 -1048 -259 -1774 -764 -1966 -1366 -58 -180 -55 -423
8 -605 131 -385 487 -733 1029 -1004 235 -118 555 -241 769 -295 207 -53 301
-76 330 -81 19 -3 53 -10 75 -15 141 -32 452 -77 655 -94 204 -18 286 -21 590
-20 299 0 434 4 580 19 25 3 74 7 110 10 36 3 76 8 90 10 14 3 48 7 75 10 78
9 332 52 462 80 668 141 1242 392 1638 716 230 188 399 408 478 624 52 142 62
203 61 370 -2 256 -82 461 -273 700 -414 519 -1325 928 -2366 1061 -22 2 -58
7 -80 10 -51 6 -90 10 -190 19 -44 4 -96 9 -115 12 -41 5 -797 13 -802 8z
m612 -80 c85 -3 178 -8 205 -10 28 -2 79 -7 115 -10 90 -8 174 -18 250 -30 14
-2 48 -6 75 -10 28 -3 57 -8 65 -10 8 -2 31 -6 50 -9 36 -6 49 -8 140 -27 30
-6 60 -12 65 -13 197 -40 533 -139 725 -215 291 -116 588 -286 781 -449 154
-130 263 -256 344 -398 203 -355 166 -736 -104 -1084 -88 -113 -332 -329 -441
-391 -14 -8 -27 -17 -30 -20 -3 -4 -23 -17 -45 -29 -22 -13 -62 -36 -90 -52
-169 -98 -463 -222 -715 -301 -137 -43 -321 -91 -430 -113 -14 -3 -68 -14
-120 -24 -52 -11 -144 -26 -205 -35 -60 -9 -121 -18 -135 -20 -14 -2 -56 -7
-95 -11 -38 -3 -77 -8 -86 -9 -9 -2 -67 -6 -130 -10 -63 -4 -130 -9 -149 -11
-48 -5 -571 -5 -645 1 -33 2 -103 7 -155 10 -52 3 -108 8 -125 10 -50 6 -137
16 -180 21 -22 2 -51 6 -65 9 -14 3 -44 7 -67 10 -23 2 -93 14 -155 26 -62 11
-124 23 -138 25 -14 3 -50 11 -80 19 -30 8 -66 16 -80 19 -128 26 -436 122
-610 191 -539 213 -961 540 -1137 880 -329 639 109 1311 1122 1724 11 5 34 14
50 21 201 83 685 214 905 245 24 4 47 8 50 10 3 1 30 6 61 9 31 4 67 9 80 11
13 3 49 8 79 11 30 3 66 7 80 9 25 4 125 14 210 21 25 2 131 6 235 10 105 3
191 7 192 8 3 2 161 -2 333 -9z"/>
<path d="M2219 4826 c-2 -2 -40 -7 -84 -10 -44 -4 -89 -9 -100 -11 -11 -2 -30
-4 -42 -4 -13 -1 -23 -6 -23 -12 0 -5 4 -7 10 -4 9 6 354 6 440 1 143 -10 244
-18 258 -21 9 -1 53 -6 97 -9 44 -4 87 -9 95 -11 8 -2 37 -7 65 -10 75 -8 371
-54 450 -70 39 -8 86 -17 105 -20 19 -3 55 -11 80 -16 25 -6 54 -13 65 -15 76
-15 240 -53 256 -58 8 -3 25 -7 39 -10 72 -13 419 -114 587 -171 604 -204 985
-433 994 -597 3 -54 0 -63 -29 -95 -59 -66 -214 -119 -417 -140 -143 -16 -704
-7 -830 12 -11 2 -51 6 -90 9 l-70 5 87 -19 c49 -10 107 -21 130 -24 24 -3 53
-8 64 -10 12 -2 37 -7 55 -10 19 -3 43 -7 54 -10 11 -2 45 -7 76 -10 31 -4 67
-9 80 -11 13 -3 44 -7 69 -10 103 -12 217 -26 240 -30 14 -2 61 -6 105 -10 44
-3 94 -8 110 -10 208 -27 798 -27 960 0 17 3 44 7 60 10 220 37 355 117 355
210 -1 122 -179 273 -510 431 -99 48 -275 124 -285 124 -3 0 -24 8 -48 19 -23
10 -85 33 -137 51 -52 17 -104 36 -115 40 -137 58 -893 263 -1120 304 -16 3
-39 8 -50 10 -11 3 -67 14 -125 26 -100 20 -147 29 -270 50 -30 6 -64 12 -75
14 -11 2 -40 7 -65 10 -25 3 -56 8 -70 11 -14 3 -47 7 -75 10 -27 3 -57 8 -65
10 -8 2 -37 7 -65 10 -27 3 -61 7 -75 10 -14 2 -50 6 -80 9 -30 3 -98 11 -150
16 -52 6 -129 13 -170 16 -41 3 -93 7 -115 10 -49 6 -631 15 -636 10z"/>
<path d="M1657 4544 c-1 -1 -74 -4 -162 -8 -156 -7 -186 -9 -271 -21 -369 -52
-570 -166 -576 -327 -2 -58 9 -93 48 -158 211 -351 1088 -777 2219 -1078 83
-22 176 -46 208 -53 l58 -14 -6 -80 c-3 -44 -7 -123 -10 -175 -10 -216 -16
-318 -21 -376 l-4 -61 397 1 397 1 -3 65 c-2 36 -5 92 -6 125 -2 33 -6 114
-10 180 -3 66 -8 133 -10 148 -3 26 -1 28 23 23 15 -3 41 -8 57 -10 17 -2 48
-7 70 -11 22 -3 63 -8 90 -11 28 -2 57 -6 65 -9 8 -2 40 -7 70 -10 30 -3 69
-7 85 -9 69 -9 159 -18 198 -21 236 -16 323 -20 517 -20 336 0 550 23 737 80
92 28 89 20 40 113 -15 29 -31 51 -36 48 -39 -24 -571 -25 -766 -1 -16 2 -64
7 -105 11 -41 3 -77 7 -80 9 -3 2 -34 6 -70 9 -36 4 -87 11 -115 16 -27 5 -68
11 -90 14 -22 3 -51 8 -65 10 -14 3 -41 7 -60 10 -29 5 -167 30 -280 52 -14 3
-77 16 -140 30 -63 15 -123 28 -134 30 -26 5 -30 10 -32 47 -1 18 -4 86 -8
152 -8 159 -15 282 -21 385 -3 47 -8 132 -11 190 -3 58 -7 134 -9 170 -2 36
-7 124 -11 195 -3 72 -8 144 -9 160 -2 17 -3 37 -4 45 -1 13 -38 15 -271 14
-149 0 -272 -3 -274 -5 -2 -2 -7 -69 -11 -149 -3 -80 -8 -165 -10 -190 -2 -25
-7 -106 -10 -180 -4 -74 -8 -155 -10 -180 -2 -25 -7 -110 -11 -190 -4 -80 -8
-161 -9 -180 -2 -19 -3 -47 -4 -62 l-1 -26 -127 43 c-705 239 -1188 506 -1298
717 -86 163 47 267 400 313 96 13 596 13 670 1 17 -2 57 -7 90 -10 33 -3 85
-8 116 -12 l56 -5 1 40 c2 39 0 41 -36 50 -20 5 -84 17 -141 26 -58 9 -107 17
-110 19 -3 2 -37 7 -76 11 -38 4 -72 8 -76 10 -3 2 -30 7 -60 10 -30 3 -64 7
-76 9 -12 3 -53 7 -90 11 -37 3 -79 8 -93 10 -14 3 -61 7 -105 10 -44 4 -96 8
-115 10 -44 5 -469 22 -473 19z"/>
</g>
</svg>
