<svg version="1.0" xmlns="http://www.w3.org/2000/svg" width="933.333" height="933.333" viewBox="0 0 700 700"><path d="M316.8 167.5c-.1.1-5.7.6-12.3 1-6.6.4-12.7.8-13.6 1-.8.2-4.9.6-9 1-4.1.3-8.5.8-9.9 1-1.4.2-4.7.6-7.5.9-2.7.3-6.1.8-7.5 1.1-1.4.2-4.3.7-6.5 1-5.4.7-14.5 2.3-23 4-3.8.8-8.1 1.6-9.5 1.9-1.4.2-9 2-17 4C96.2 210.3 23.6 260.8 4.4 321c-5.8 18-5.5 42.3.8 60.5 13.1 38.5 48.7 73.3 102.9 100.4 23.5 11.8 55.5 24.1 76.9 29.5 20.7 5.3 30.1 7.6 33 8.1 1.9.3 5.3 1 7.5 1.5 14.1 3.2 45.2 7.7 65.5 9.4 20.4 1.8 28.6 2.1 59 2 29.9 0 43.4-.4 58-1.9 2.5-.3 7.4-.7 11-1 3.6-.3 7.6-.8 9-1 1.4-.3 4.8-.7 7.5-1 7.8-.9 33.2-5.2 46.2-8 66.8-14.1 124.2-39.2 163.8-71.6 23-18.8 39.9-40.8 47.8-62.4 5.2-14.2 6.2-20.3 6.1-37-.2-25.6-8.2-46.1-27.3-70-41.4-51.9-132.5-92.8-236.6-106.1-2.2-.2-5.8-.7-8-1-5.1-.6-9-1-19-1.9-4.4-.4-9.6-.9-11.5-1.2-4.1-.5-79.7-1.3-80.2-.8zm61.2 8c8.5.3 17.8.8 20.5 1 2.8.2 7.9.7 11.5 1 9 .8 17.4 1.8 25 3 1.4.2 4.8.6 7.5 1 2.8.3 5.7.8 6.5 1 .8.2 3.1.6 5 .9 3.6.6 4.9.8 14 2.7l6.5 1.3c19.7 4 53.3 13.9 72.5 21.5 29.1 11.6 58.8 28.6 78.1 44.9 15.4 13 26.3 25.6 34.4 39.8 20.3 35.5 16.6 73.6-10.4 108.4-8.8 11.3-33.2 32.9-44.1 39.1-1.4.8-2.7 1.7-3 2-.3.4-2.3 1.7-4.5 2.9-2.2 1.3-6.2 3.6-9 5.2-16.9 9.8-46.3 22.2-71.5 30.1-13.7 4.3-32.1 9.1-43 11.3-1.4.3-6.8 1.4-12 2.4-5.2 1.1-14.4 2.6-20.5 3.5-6 .9-12.1 1.8-13.5 2-1.4.2-5.6.7-9.5 1.1-3.8.3-7.7.8-8.6.9-.9.2-6.7.6-13 1s-13 .9-14.9 1.1c-4.8.5-57.1.5-64.5-.1-3.3-.2-10.3-.7-15.5-1-5.2-.3-10.8-.8-12.5-1-5-.6-13.7-1.6-18-2.1-2.2-.2-5.1-.6-6.5-.9-1.4-.3-4.4-.7-6.7-1-2.3-.2-9.3-1.4-15.5-2.6-6.2-1.1-12.4-2.3-13.8-2.5-1.4-.3-5-1.1-8-1.9-3-.8-6.6-1.6-8-1.9-12.8-2.6-43.6-12.2-61-19.1-53.9-21.3-96.1-54-113.7-88-32.9-63.9 10.9-131.1 112.2-172.4 1.1-.5 3.4-1.4 5-2.1 20.1-8.3 68.5-21.4 90.5-24.5 2.4-.4 4.7-.8 5-1 .3-.1 3-.6 6.1-.9 3.1-.4 6.7-.9 8-1.1 1.3-.3 4.9-.8 7.9-1.1 3-.3 6.6-.7 8-.9 2.5-.4 12.5-1.4 21-2.1 2.5-.2 13.1-.6 23.5-1 10.5-.3 19.1-.7 19.2-.8.3-.2 16.1.2 33.3.9z"/><path d="M221.9 217.4c-.2.2-4 .7-8.4 1-4.4.4-8.9.9-10 1.1-1.1.2-3 .4-4.2.4-1.3.1-2.3.6-2.3 1.2 0 .5.4.7 1 .4.9-.6 35.4-.6 44-.1 14.3 1 24.4 1.8 25.8 2.1.9.1 5.3.6 9.7.9 4.4.4 8.7.9 9.5 1.1.8.2 3.7.7 6.5 1 7.5.8 37.1 5.4 45 7 3.9.8 8.6 1.7 10.5 2 1.9.3 5.5 1.1 8 1.6 2.5.6 5.4 1.3 6.5 1.5 7.6 1.5 24 5.3 25.6 5.8.8.3 2.5.7 3.9 1 7.2 1.3 41.9 11.4 58.7 17.1 60.4 20.4 98.5 43.3 99.4 59.7.3 5.4 0 6.3-2.9 9.5-5.9 6.6-21.4 11.9-41.7 14-14.3 1.6-70.4.7-83-1.2-1.1-.2-5.1-.6-9-.9l-7-.5 8.7 1.9c4.9 1 10.7 2.1 13 2.4 2.4.3 5.3.8 6.4 1 1.2.2 3.7.7 5.5 1 1.9.3 4.3.7 5.4 1 1.1.2 4.5.7 7.6 1 3.1.4 6.7.9 8 1.1 1.3.3 4.4.7 6.9 1 10.3 1.2 21.7 2.6 24 3 1.4.2 6.1.6 10.5 1 4.4.3 9.4.8 11 1 20.8 2.7 79.8 2.7 96 0 1.7-.3 4.4-.7 6-1 22-3.7 35.5-11.7 35.5-21-.1-12.2-17.9-27.3-51-43.1-9.9-4.8-27.5-12.4-28.5-12.4-.3 0-2.4-.8-4.8-1.9-2.3-1-8.5-3.3-13.7-5.1-5.2-1.7-10.4-3.6-11.5-4-13.7-5.8-89.3-26.3-112-30.4-1.6-.3-3.9-.8-5-1-1.1-.3-6.7-1.4-12.5-2.6-10-2-14.7-2.9-27-5-3-.6-6.4-1.2-7.5-1.4-1.1-.2-4-.7-6.5-1-2.5-.3-5.6-.8-7-1.1-1.4-.3-4.7-.7-7.5-1-2.7-.3-5.7-.8-6.5-1-.8-.2-3.7-.7-6.5-1-2.7-.3-6.1-.7-7.5-1-1.4-.2-5-.6-8-.9-3-.3-9.8-1.1-15-1.6-5.2-.6-12.9-1.3-17-1.6-4.1-.3-9.3-.7-11.5-1-4.9-.6-63.1-1.5-63.6-1z"/><path d="M165.7 245.6c-.1.1-7.4.4-16.2.8-15.6.7-18.6.9-27.1 2.1-36.9 5.2-57 16.6-57.6 32.7-.2 5.8.9 9.3 4.8 15.8 21.1 35.1 108.8 77.7 221.9 107.8 8.3 2.2 17.6 4.6 20.8 5.3l5.8 1.4-.6 8c-.3 4.4-.7 12.3-1 17.5-1 21.6-1.6 31.8-2.1 37.6l-.4 6.1 39.7-.1 39.7-.1-.3-6.5c-.2-3.6-.5-9.2-.6-12.5-.2-3.3-.6-11.4-1-18-.3-6.6-.8-13.3-1-14.8-.3-2.6-.1-2.8 2.3-2.3 1.5.3 4.1.8 5.7 1 1.7.2 4.8.7 7 1.1 2.2.3 6.3.8 9 1.1 2.8.2 5.7.6 6.5.9.8.2 4 .7 7 1 3 .3 6.9.7 8.5.9 6.9.9 15.9 1.8 19.8 2.1 23.6 1.6 32.3 2 51.7 2 33.6 0 55-2.3 73.7-8 9.2-2.8 8.9-2 4-11.3-1.5-2.9-3.1-5.1-3.6-4.8-3.9 2.4-57.1 2.5-76.6.1-1.6-.2-6.4-.7-10.5-1.1-4.1-.3-7.7-.7-8-.9-.3-.2-3.4-.6-7-.9-3.6-.4-8.7-1.1-11.5-1.6-2.7-.5-6.8-1.1-9-1.4-2.2-.3-5.1-.8-6.5-1-1.4-.3-4.1-.7-6-1-2.9-.5-16.7-3-28-5.2-1.4-.3-7.7-1.6-14-3-6.3-1.5-12.3-2.8-13.4-3-2.6-.5-3-1-3.2-4.7-.1-1.8-.4-8.6-.8-15.2-.8-15.9-1.5-28.2-2.1-38.5-.3-4.7-.8-13.2-1.1-19-.3-5.8-.7-13.4-.9-17-.2-3.6-.7-12.4-1.1-19.5-.3-7.2-.8-14.4-.9-16-.2-1.7-.3-3.7-.4-4.5-.1-1.3-3.8-1.5-27.1-1.4-14.9 0-27.2.3-27.4.5-.2.2-.7 6.9-1.1 14.9-.3 8-.8 16.5-1 19-.2 2.5-.7 10.6-1 18-.4 7.4-.8 15.5-1 18-.2 2.5-.7 11-1.1 19-.4 8-.8 16.1-.9 18-.2 1.9-.3 4.7-.4 6.2l-.1 2.6-12.7-4.3c-70.5-23.9-118.8-50.6-129.8-71.7-8.6-16.3 4.7-26.7 40-31.3 9.6-1.3 59.6-1.3 67-.1 1.7.2 5.7.7 9 1 3.3.3 8.5.8 11.6 1.2l5.6.5.1-4c.2-3.9 0-4.1-3.6-5-2-.5-8.4-1.7-14.1-2.6-5.8-.9-10.7-1.7-11-1.9-.3-.2-3.7-.7-7.6-1.1-3.8-.4-7.2-.8-7.6-1-.3-.2-3-.7-6-1-3-.3-6.4-.7-7.6-.9-1.2-.3-5.3-.7-9-1.1-3.7-.3-7.9-.8-9.3-1-1.4-.3-6.1-.7-10.5-1-4.4-.4-9.6-.8-11.5-1-4.4-.5-46.9-2.2-47.3-1.9z"/></svg>